# xmcd
#
# Track frame offsets: 
#        150
#        10379
#        22662
#        36472
#        47873
#        59295
#        72253
#        83871
#        94157
#        106949
#        119996
#        132764
#        145026
#        156326
#        168134
#        180775
#        194251
#        206687
#        224668
#        238076
#        250111
#        262679
#        274319
#        287747
#        299388
#
# Disc length: 4134 seconds
#
# Revision: 3
# Processed by: cddbd v1.5.2PL0 Copyright (c) Steve Scherf et al.
# Submitted via: ExactAudioCopyFreeDBPlugin 1.0
#
DISCID=73102419
DTITLE=Various Artist - Rhythm 'n' Blues:  Boogie Woogie Goodies [Mem
DTITLE=bran Music] [box set]
DYEAR=2005
DGENRE=Rhythm and Blues
TTITLE0=Champion Jack Dupree - Rub-A-Little Boogie
TTITLE1=Ivory Joe Hunter - Boogin' in the Rain
TTITLE2=T-Bone Walker - T-Bone Boogie
TTITLE3=Tommy Douglas - Douglas Boogie
TTITLE4=Big Mama Thornton - Mischievous Boogie
TTITLE5=Big Jay McNeely - Roadhouse Boogie
TTITLE6=Spookum Russel - Jukebox Boogie Woogie Chick
TTITLE7=Amos Milburn - My Baby's Booging
TTITLE8=Little Richard - Little Richard's Boogie
TTITLE9=Joey Thomas - Cherokee Boogie
TTITLE10=Cecil Gant - Shotgun Boogie
TTITLE11=Louis Jordan - Choo Choo Ch' Boogie
TTITLE12=Johnny Otis - Lovers Lane Boogie
TTITLE13=Morris Lane - Bobby's Boogie
TTITLE14=Roy Brown - Boogie at Midnight
TTITLE15=Freddie Mitchell - Doby's Boogie
TTITLE16=Jim Wynn - Cold Blooded Boogie
TTITLE17=Louis Jordan - Blue Light Boogie
TTITLE18=Lalo Guerrero - Marihuana Boogie
TTITLE19=Taps Miller - Manneken Piss Boogie
TTITLE20=Elmore James - Round House Boogie (ft Pep Brown Orchestra)
TTITLE21=Jimmie Maddin - Boogie Boo
TTITLE22=Jack McVea - Frantic Boogie
TTITLE23=Crown Prince Waterford - Kissin' Bug Boogie
TTITLE24=Joe Lutcher - Lucky Lindy Boogie
EXTD=YEAR: 2005
EXTT0=
EXTT1=
EXTT2=
EXTT3=
EXTT4=
EXTT5=
EXTT6=
EXTT7=
EXTT8=
EXTT9=
EXTT10=
EXTT11=
EXTT12=
EXTT13=
EXTT14=
EXTT15=
EXTT16=
EXTT17=
EXTT18=
EXTT19=
EXTT20=
EXTT21=
EXTT22=
EXTT23=
EXTT24=
PLAYORDER=
